# xmcd
#
# Track frame offsets:
#	150
#	14180
#	26083
#	41171
#	54442
#	68110
#	80490
#	94423
#	108315
#	122973
#	135465
#	155763
#	173602
#	186250
#	200404
#	213276
# Disc length: 3051 seconds
# Revision: 1
# Processed by: cddbd v1.5.2PL0 Copyright (c) Steve Scherf et al.
#
# Submitted via: libkcddb 0.31
#
DISCID=e80be910
DTITLE=Various Artist - Music Featuring the Bowed Psaltrery with Rick Long and Friends
DYEAR=2006
DGENRE=Folk
TTITLE0=Down by the Sally Gardens
TTITLE1=Sweet Betsy From Pike
TTITLE2=Arkansas Traveler
TTITLE3=Irish Washerwoman
TTITLE4=Red Wing
TTITLE5=Old Rosin the Bow
TTITLE6=Grandfather's Clock
TTITLE7=Greensleeves
TTITLE8=Flow Gently Sweet Afton
TTITLE9=Banks of the Ohio
TTITLE10=Southwind
TTITLE11=All the Pretty Little Horses
TTITLE12=Morning Has Broken
TTITLE13=Little Rosewood Casket
TTITLE14=Wildwood Flower
TTITLE15=Start of the County Down
EXTD=
EXTT0=
EXTT1=
EXTT2=
EXTT3=
EXTT4=
EXTT5=
EXTT6=
EXTT7=
EXTT8=
EXTT9=
EXTT10=
EXTT11=
EXTT12=
EXTT13=
EXTT14=
EXTT15=
PLAYORDER=
